# xmcd
#
# Track frame offsets: 
#        150
#        22492
#        48527
#        73707
#        89912
#        106875
#        124365
#        140790
#        155227
#        176480
#        194730
#        203995
#        222500
#        238755
#        262027
#
# Disc length: 3972 seconds
#
# Revision: 5
# Processed by: cddbd v1.5.2PL0 Copyright (c) Steve Scherf et al.
# Submitted via: ExactAudioCopy v0.95b4
#
DISCID=050f820f
DTITLE=Michael Martin Murphey - Cowboy Songs Four
DYEAR=1997
DGENRE=Country
TTITLE0=Song From Lonesome Dove
TTITLE1=Trail Song Medley
TTITLE2=Born to be a Cowboy
TTITLE3=Farther Down the Line
TTITLE4=Born to Buck Bad Luck
TTITLE5=Easy on the Pain
TTITLE6=Utah Carroll
TTITLE7=Freewheeler
TTITLE8=Rangeland Rebel
TTITLE9=Run Toward the Light
TTITLE10=The Bunkhouse Orchestra
TTITLE11=Little Joe the Wrangler
TTITLE12=Summer Ranges
TTITLE13=Old Horse
TTITLE14=Night Hawk
EXTD=
EXTT0=
EXTT1=
EXTT2=
EXTT3=
EXTT4=
EXTT5=
EXTT6=
EXTT7=
EXTT8=
EXTT9=
EXTT10=
EXTT11=
EXTT12=
EXTT13=
EXTT14=
PLAYORDER=
